<svg id="Layer_1" data-name="Layer 1" xmlns="http://www.w3.org/2000/svg" viewBox="0 0 600 600"><defs><style>.cls-1{fill:#1d1d1b;}</style></defs><path class="cls-1" d="M450.34,294.23,308.17,93.16l-16.34,11.55,33.22,47A83.25,83.25,0,0,0,300,147.82c-30.19,0-58.34,16.29-79.25,45.87C200.58,222.22,189.47,260,189.47,300a210.78,210.78,0,0,0,2.21,30.56L166,294.23l-16.33,11.54L291.83,506.84l16.34-11.55-33.22-47A83.25,83.25,0,0,0,300,452.18h0c30.19,0,58.34-16.3,79.25-45.87C399.42,377.78,410.53,340,410.53,300a210.78,210.78,0,0,0-2.21-30.56L434,305.77ZM228.91,381.54a154.39,154.39,0,0,1-12.66-31.24l53.54-75.71,17.37,24.57ZM282,257.27l55-77.79a94.46,94.46,0,0,1,21,19.38l-58.67,83Zm88-40.7a152.58,152.58,0,0,1,13.59,32.8l-53.6,75.8-18.4-26Zm-133-11.33c17.06-24.13,39.4-37.42,62.92-37.42a63.29,63.29,0,0,1,18.75,2.88L210.83,323.33C205.66,281.73,214.4,237.31,237.08,205.24ZM362.92,394.76c-17.06,24.13-39.4,37.42-62.92,37.42-21.9,0-42.79-11.54-59.34-32.62l58.75-83.08,14.41,20.38c4,5.69,9.94,9,16.23,9s12.2-3.27,16.23-9l42.85-60.59C394.39,318,385.67,362.59,362.92,394.76Z"/></svg>